<mxfile host="app.diagrams.net" modified="2024-01-02T07:19:02.399Z" agent="Mozilla/5.0 (Windows NT 10.0; Win64; x64) AppleWebKit/537.36 (KHTML, like Gecko) Chrome/120.0.0.0 Safari/537.36 Edg/120.0.0.0" etag="aEDRGtiRqJwMNvy1lJlf" version="22.1.16" type="device">
  <diagram name="第 1 页" id="Egr7aLEKjTjNR10hdzCL">
    <mxGraphModel dx="1737" dy="892" grid="1" gridSize="10" guides="1" tooltips="1" connect="1" arrows="1" fold="1" page="1" pageScale="1" pageWidth="827" pageHeight="1169" math="0" shadow="0">
      <root>
        <mxCell id="0" />
        <mxCell id="1" parent="0" />
        <mxCell id="7b4NSySToal9KkZPwsAI-6" style="edgeStyle=orthogonalEdgeStyle;rounded=0;orthogonalLoop=1;jettySize=auto;html=1;" edge="1" parent="1" source="7b4NSySToal9KkZPwsAI-1">
          <mxGeometry relative="1" as="geometry">
            <mxPoint x="240" y="200" as="targetPoint" />
          </mxGeometry>
        </mxCell>
        <mxCell id="7b4NSySToal9KkZPwsAI-1" value="&lt;font style=&quot;font-size: 15px;&quot;&gt;开始&lt;/font&gt;" style="rounded=1;whiteSpace=wrap;html=1;" vertex="1" parent="1">
          <mxGeometry x="180" y="100" width="120" height="60" as="geometry" />
        </mxCell>
        <mxCell id="7b4NSySToal9KkZPwsAI-7" value="&lt;font style=&quot;font-size: 15px;&quot;&gt;输入操作命令&lt;/font&gt;" style="rounded=0;whiteSpace=wrap;html=1;" vertex="1" parent="1">
          <mxGeometry x="180" y="200" width="120" height="60" as="geometry" />
        </mxCell>
        <mxCell id="7b4NSySToal9KkZPwsAI-8" value="&lt;font style=&quot;font-size: 15px;&quot;&gt;命令是否正确&lt;/font&gt;" style="strokeWidth=2;html=1;shape=mxgraph.flowchart.decision;whiteSpace=wrap;" vertex="1" parent="1">
          <mxGeometry x="120" y="300" width="240" height="100" as="geometry" />
        </mxCell>
        <mxCell id="7b4NSySToal9KkZPwsAI-9" value="" style="endArrow=classic;html=1;rounded=0;exitX=0.5;exitY=1;exitDx=0;exitDy=0;entryX=0.5;entryY=0;entryDx=0;entryDy=0;entryPerimeter=0;" edge="1" parent="1" source="7b4NSySToal9KkZPwsAI-7" target="7b4NSySToal9KkZPwsAI-8">
          <mxGeometry width="50" height="50" relative="1" as="geometry">
            <mxPoint x="220" y="310" as="sourcePoint" />
            <mxPoint x="270" y="260" as="targetPoint" />
          </mxGeometry>
        </mxCell>
        <mxCell id="7b4NSySToal9KkZPwsAI-10" value="" style="endArrow=classic;html=1;rounded=0;exitX=1;exitY=0.5;exitDx=0;exitDy=0;exitPerimeter=0;" edge="1" parent="1" source="7b4NSySToal9KkZPwsAI-8">
          <mxGeometry width="50" height="50" relative="1" as="geometry">
            <mxPoint x="340" y="320" as="sourcePoint" />
            <mxPoint x="240" y="180" as="targetPoint" />
            <Array as="points">
              <mxPoint x="400" y="350" />
              <mxPoint x="400" y="180" />
            </Array>
          </mxGeometry>
        </mxCell>
        <mxCell id="7b4NSySToal9KkZPwsAI-13" value="否" style="edgeLabel;html=1;align=center;verticalAlign=middle;resizable=0;points=[];" vertex="1" connectable="0" parent="7b4NSySToal9KkZPwsAI-10">
          <mxGeometry x="-0.3364" relative="1" as="geometry">
            <mxPoint as="offset" />
          </mxGeometry>
        </mxCell>
        <mxCell id="7b4NSySToal9KkZPwsAI-11" value="" style="endArrow=classic;html=1;rounded=0;exitX=0.5;exitY=1;exitDx=0;exitDy=0;exitPerimeter=0;entryX=0.542;entryY=0.499;entryDx=0;entryDy=0;entryPerimeter=0;" edge="1" parent="1" source="7b4NSySToal9KkZPwsAI-8" target="7b4NSySToal9KkZPwsAI-14">
          <mxGeometry width="50" height="50" relative="1" as="geometry">
            <mxPoint x="200" y="460" as="sourcePoint" />
            <mxPoint x="240" y="450" as="targetPoint" />
          </mxGeometry>
        </mxCell>
        <mxCell id="7b4NSySToal9KkZPwsAI-12" value="是" style="edgeLabel;html=1;align=center;verticalAlign=middle;resizable=0;points=[];" vertex="1" connectable="0" parent="7b4NSySToal9KkZPwsAI-11">
          <mxGeometry x="-0.2024" y="-1" relative="1" as="geometry">
            <mxPoint as="offset" />
          </mxGeometry>
        </mxCell>
        <mxCell id="7b4NSySToal9KkZPwsAI-14" value="" style="strokeWidth=2;html=1;shape=mxgraph.flowchart.annotation_2;align=left;labelPosition=right;pointerEvents=1;rotation=90;" vertex="1" parent="1">
          <mxGeometry x="215" y="355" width="50" height="240" as="geometry" />
        </mxCell>
        <mxCell id="7b4NSySToal9KkZPwsAI-21" value="&lt;font style=&quot;font-size: 15px;&quot;&gt;创&lt;br&gt;建&lt;br&gt;虚&lt;br&gt;拟&lt;br&gt;机&lt;br&gt;请&lt;br&gt;求&lt;/font&gt;" style="rounded=0;whiteSpace=wrap;html=1;" vertex="1" parent="1">
          <mxGeometry x="90" y="499" width="60" height="181" as="geometry" />
        </mxCell>
        <mxCell id="7b4NSySToal9KkZPwsAI-24" value="" style="strokeWidth=2;html=1;shape=mxgraph.flowchart.annotation_1;align=left;pointerEvents=1;rotation=90;" vertex="1" parent="1">
          <mxGeometry x="282.66" y="427.35" width="31.56" height="126.87" as="geometry" />
        </mxCell>
        <mxCell id="7b4NSySToal9KkZPwsAI-22" value="&lt;font style=&quot;font-size: 15px;&quot;&gt;查&lt;br&gt;看&lt;br&gt;服&lt;br&gt;务&lt;br&gt;器&lt;br&gt;虚&lt;br&gt;拟&lt;br&gt;机&lt;br&gt;目&lt;br&gt;录&lt;/font&gt;" style="rounded=0;whiteSpace=wrap;html=1;" vertex="1" parent="1">
          <mxGeometry x="330" y="500" width="60" height="180" as="geometry" />
        </mxCell>
        <mxCell id="7b4NSySToal9KkZPwsAI-25" value="&lt;font style=&quot;font-size: 15px;&quot;&gt;在&lt;br&gt;服&lt;br&gt;务&lt;br&gt;器&lt;br&gt;上&lt;br&gt;添&lt;br&gt;加&lt;br&gt;虚&lt;br&gt;拟&lt;br&gt;机&lt;/font&gt;" style="rounded=0;whiteSpace=wrap;html=1;" vertex="1" parent="1">
          <mxGeometry x="215" y="499" width="60" height="181" as="geometry" />
        </mxCell>
        <mxCell id="7b4NSySToal9KkZPwsAI-28" value="" style="strokeWidth=2;html=1;shape=mxgraph.flowchart.annotation_2;align=left;labelPosition=right;pointerEvents=1;rotation=-90;" vertex="1" parent="1">
          <mxGeometry x="215" y="595" width="50" height="220" as="geometry" />
        </mxCell>
        <mxCell id="7b4NSySToal9KkZPwsAI-29" value="" style="strokeWidth=2;html=1;shape=mxgraph.flowchart.annotation_1;align=left;pointerEvents=1;rotation=-90;" vertex="1" parent="1">
          <mxGeometry x="173.13" y="635.88" width="25.5" height="112.75" as="geometry" />
        </mxCell>
        <mxCell id="7b4NSySToal9KkZPwsAI-30" value="&lt;font style=&quot;font-size: 15px;&quot;&gt;执行相关操作&lt;/font&gt;" style="rounded=0;whiteSpace=wrap;html=1;" vertex="1" parent="1">
          <mxGeometry x="173" y="730" width="120" height="60" as="geometry" />
        </mxCell>
        <mxCell id="7b4NSySToal9KkZPwsAI-31" value="" style="endArrow=classic;html=1;rounded=0;exitX=1;exitY=1;exitDx=0;exitDy=0;exitPerimeter=0;entryX=0;entryY=0.5;entryDx=0;entryDy=0;entryPerimeter=0;" edge="1" parent="1" source="7b4NSySToal9KkZPwsAI-29" target="7b4NSySToal9KkZPwsAI-28">
          <mxGeometry width="50" height="50" relative="1" as="geometry">
            <mxPoint x="570" y="640" as="sourcePoint" />
            <mxPoint x="620" y="590" as="targetPoint" />
          </mxGeometry>
        </mxCell>
        <mxCell id="7b4NSySToal9KkZPwsAI-34" style="edgeStyle=orthogonalEdgeStyle;rounded=0;orthogonalLoop=1;jettySize=auto;html=1;exitX=1;exitY=0.5;exitDx=0;exitDy=0;exitPerimeter=0;" edge="1" parent="1" source="7b4NSySToal9KkZPwsAI-32">
          <mxGeometry relative="1" as="geometry">
            <mxPoint x="400" y="180" as="targetPoint" />
            <Array as="points">
              <mxPoint x="480" y="880" />
              <mxPoint x="480" y="180" />
            </Array>
          </mxGeometry>
        </mxCell>
        <mxCell id="7b4NSySToal9KkZPwsAI-35" value="是" style="edgeLabel;html=1;align=center;verticalAlign=middle;resizable=0;points=[];" vertex="1" connectable="0" parent="7b4NSySToal9KkZPwsAI-34">
          <mxGeometry x="-0.8499" y="4" relative="1" as="geometry">
            <mxPoint as="offset" />
          </mxGeometry>
        </mxCell>
        <mxCell id="7b4NSySToal9KkZPwsAI-37" style="edgeStyle=orthogonalEdgeStyle;rounded=0;orthogonalLoop=1;jettySize=auto;html=1;exitX=0.5;exitY=1;exitDx=0;exitDy=0;exitPerimeter=0;entryX=0.5;entryY=0;entryDx=0;entryDy=0;" edge="1" parent="1" source="7b4NSySToal9KkZPwsAI-32" target="7b4NSySToal9KkZPwsAI-36">
          <mxGeometry relative="1" as="geometry" />
        </mxCell>
        <mxCell id="7b4NSySToal9KkZPwsAI-38" value="否" style="edgeLabel;html=1;align=center;verticalAlign=middle;resizable=0;points=[];" vertex="1" connectable="0" parent="7b4NSySToal9KkZPwsAI-37">
          <mxGeometry x="-0.2074" y="-1" relative="1" as="geometry">
            <mxPoint as="offset" />
          </mxGeometry>
        </mxCell>
        <mxCell id="7b4NSySToal9KkZPwsAI-32" value="&lt;font style=&quot;font-size: 15px;&quot;&gt;是否继续&lt;/font&gt;" style="strokeWidth=2;html=1;shape=mxgraph.flowchart.decision;whiteSpace=wrap;" vertex="1" parent="1">
          <mxGeometry x="140.5" y="830" width="185" height="100" as="geometry" />
        </mxCell>
        <mxCell id="7b4NSySToal9KkZPwsAI-33" style="edgeStyle=orthogonalEdgeStyle;rounded=0;orthogonalLoop=1;jettySize=auto;html=1;exitX=0.5;exitY=1;exitDx=0;exitDy=0;entryX=0.5;entryY=0;entryDx=0;entryDy=0;entryPerimeter=0;" edge="1" parent="1" source="7b4NSySToal9KkZPwsAI-30" target="7b4NSySToal9KkZPwsAI-32">
          <mxGeometry relative="1" as="geometry" />
        </mxCell>
        <mxCell id="7b4NSySToal9KkZPwsAI-36" value="结束" style="rounded=1;whiteSpace=wrap;html=1;" vertex="1" parent="1">
          <mxGeometry x="173" y="980" width="120" height="60" as="geometry" />
        </mxCell>
      </root>
    </mxGraphModel>
  </diagram>
</mxfile>
